<svg xmlns="http://www.w3.org/2000/svg" viewBox="0 0 1200 900" role="img" aria-labelledby="title desc">
  <title id="title">Peptide library illustration</title>
  <desc id="desc">Abstract shelves of vials and labels representing a peptide library.</desc>
  <defs>
    <linearGradient id="bg" x1="0" y1="0" x2="1" y2="1">
      <stop offset="0%" stop-color="#edf8ff"/>
      <stop offset="100%" stop-color="#cfe7f6"/>
    </linearGradient>
  </defs>
  <rect width="1200" height="900" fill="url(#bg)"/>
  <rect x="120" y="220" width="960" height="28" rx="14" fill="#8db9cf"/>
  <rect x="120" y="460" width="960" height="28" rx="14" fill="#8db9cf"/>
  <rect x="120" y="700" width="960" height="28" rx="14" fill="#8db9cf"/>
  <g>
    <rect x="180" y="130" width="110" height="160" rx="20" fill="#ffffff" stroke="#7fb3c9" stroke-width="6"/>
    <rect x="330" y="130" width="110" height="160" rx="20" fill="#ffffff" stroke="#7fb3c9" stroke-width="6"/>
    <rect x="480" y="130" width="110" height="160" rx="20" fill="#ffffff" stroke="#7fb3c9" stroke-width="6"/>
    <rect x="630" y="130" width="110" height="160" rx="20" fill="#ffffff" stroke="#7fb3c9" stroke-width="6"/>
    <rect x="780" y="130" width="110" height="160" rx="20" fill="#ffffff" stroke="#7fb3c9" stroke-width="6"/>
    <rect x="930" y="130" width="110" height="160" rx="20" fill="#ffffff" stroke="#7fb3c9" stroke-width="6"/>
  </g>
  <g>
    <rect x="180" y="370" width="110" height="160" rx="20" fill="#ffffff" stroke="#7fb3c9" stroke-width="6"/>
    <rect x="330" y="370" width="110" height="160" rx="20" fill="#ffffff" stroke="#7fb3c9" stroke-width="6"/>
    <rect x="480" y="370" width="110" height="160" rx="20" fill="#ffffff" stroke="#7fb3c9" stroke-width="6"/>
    <rect x="630" y="370" width="110" height="160" rx="20" fill="#ffffff" stroke="#7fb3c9" stroke-width="6"/>
    <rect x="780" y="370" width="110" height="160" rx="20" fill="#ffffff" stroke="#7fb3c9" stroke-width="6"/>
    <rect x="930" y="370" width="110" height="160" rx="20" fill="#ffffff" stroke="#7fb3c9" stroke-width="6"/>
  </g>
  <g fill="#49b6d6">
    <rect x="210" y="190" width="50" height="60" rx="12"/>
    <rect x="360" y="190" width="50" height="60" rx="12"/>
    <rect x="510" y="190" width="50" height="60" rx="12"/>
    <rect x="660" y="190" width="50" height="60" rx="12"/>
    <rect x="810" y="190" width="50" height="60" rx="12"/>
    <rect x="960" y="190" width="50" height="60" rx="12"/>
    <rect x="210" y="430" width="50" height="60" rx="12"/>
    <rect x="360" y="430" width="50" height="60" rx="12"/>
    <rect x="510" y="430" width="50" height="60" rx="12"/>
    <rect x="660" y="430" width="50" height="60" rx="12"/>
    <rect x="810" y="430" width="50" height="60" rx="12"/>
    <rect x="960" y="430" width="50" height="60" rx="12"/>
  </g>
</svg>